<?xml version="1.0" encoding="UTF-8" standalone="no"?><!DOCTYPE svg PUBLIC "-//W3C//DTD SVG 1.1//EN" "http://www.w3.org/Graphics/SVG/1.1/DTD/svg11.dtd"><svg width="100%" height="100%" viewBox="0 0 512 512" version="1.1" xmlns="http://www.w3.org/2000/svg" xmlns:xlink="http://www.w3.org/1999/xlink" xml:space="preserve" xmlns:serif="http://www.serif.com/" style="fill-rule:evenodd;clip-rule:evenodd;stroke-linejoin:round;stroke-miterlimit:1.41421;"><path d="M200.504,221.328l-75.48,-14.776l-2.128,12.176l-30.4,-5.32c-2.115,-0.371 -4.258,-0.558 -6.405,-0.558c-17.931,0 -33.415,13.021 -36.491,30.686l-20.272,115.664c-3.484,20.025 10.114,39.374 30.136,42.88l30.4,5.328l-3.2,18.256c-0.786,-0.155 -1.585,-0.233 -2.386,-0.233c-6.781,0 -12.36,5.58 -12.36,12.36c0,6.075 4.478,11.294 10.482,12.217l170.4,29.808c0.703,0.123 1.415,0.185 2.128,0.185c6.781,0 12.361,-5.58 12.361,-12.361c0,-5.981 -4.341,-11.146 -10.233,-12.176l6.944,-39.288c0,0 -62.504,-182.152 -62.912,-184.592l-0.584,-10.256Zm-106.352,161.728l-24.344,-4.256c-8.833,-1.542 -15.342,-9.286 -15.342,-18.252c0,-1.071 0.093,-2.141 0.278,-3.196l18.096,-103.472c1.542,-8.833 9.286,-15.342 18.252,-15.342c1.071,0 2.141,0.093 3.196,0.278l24.344,4.256l-24.48,139.984Z" style="fill:#cfcfcf;fill-opacity:0.372549;fill-rule:nonzero;"/><path d="M200,231.72l1.072,-0.352l-0.568,-10.04l-73.952,-14.472l-38.552,217.144c-0.686,4.334 2.315,8.464 6.648,9.152l160.208,29.408c4.303,0.685 8.414,-2.265 9.144,-6.56l-4.416,-45.184l-59.584,-179.096Z" style="fill:#f4c734;fill-opacity:0.372549;fill-rule:nonzero;"/><path d="M203.704,235.016l71.648,210.584c-4.988,1.706 -8.361,6.424 -8.361,11.696c0,6.781 5.58,12.361 12.361,12.361c1.361,0 2.712,-0.225 4,-0.665l163.784,-55.72c4.995,-1.7 8.375,-6.42 8.375,-11.696c0,-6.778 -5.577,-12.355 -12.355,-12.355c-1.354,0 -2.698,0.223 -3.98,0.659l-7.176,-21.08l24.624,-8.376c19.249,-6.552 29.7,-27.781 23.152,-47.032l-37.848,-111.152c-5.095,-14.992 -19.259,-25.138 -35.093,-25.138c-4.064,0 -8.1,0.668 -11.947,1.978l-24.616,8.376l-2.776,-8.16l-163.792,55.72Zm239.064,104l-18.768,6.4l-45.768,-134.56l18.768,-6.4c9.626,-3.272 20.24,1.952 23.52,11.576l33.832,99.44c0.657,1.927 0.993,3.948 0.993,5.984c0,7.921 -5.077,15.006 -12.577,17.552l0,0.008Z" style="fill:#cfcfcf;fill-opacity:0.372549;fill-rule:nonzero;"/><path d="M368,176l-168,55.72l69.288,208.28c1.69,4.2 6.416,6.388 10.712,4.96l154.656,-50.832c3.395,-0.958 5.757,-4.079 5.757,-7.607c0,-0.857 -0.14,-1.709 -0.413,-2.521l-72,-208Z" style="fill:#f4c734;fill-opacity:0.372549;fill-rule:nonzero;"/><g><path d="M200.744,216.896c2.326,-18.759 18.875,-32.756 37.76,-31.936c0.725,-1.105 1.504,-2.173 2.336,-3.2c-0.98,-0.317 -1.976,-0.584 -2.984,-0.8c-8.982,-1.115 -18.093,-0.573 -26.88,1.6c-9.379,-10.782 -22.988,-16.982 -37.279,-16.982c-23.913,0 -44.564,17.361 -48.673,40.918l75.48,14.776c0.056,-1.432 0.04,-2.92 0.24,-4.376Z" style="fill:#f9f2cc;fill-opacity:0.372549;fill-rule:nonzero;"/><circle cx="336" cy="40" r="16" style="fill:#f9f2cc;fill-opacity:0.372549;"/><circle cx="264" cy="96" r="32" style="fill:#f9f2cc;fill-opacity:0.372549;"/><circle cx="152" cy="104" r="24" style="fill:#f9f2cc;fill-opacity:0.372549;"/><circle cx="104" cy="40" r="16" style="fill:#f9f2cc;fill-opacity:0.372549;"/><path d="M200.744,216.896c-0.639,4.887 -0.525,9.843 0.336,14.696c0.408,2.4 1.664,1.968 3.496,1.448c4.432,-1.264 8.8,-2.992 13.232,-4.504c4.154,-1.415 8.736,0.838 10.152,4.992l5.04,14.824c2.936,9.281 12.467,14.952 22.024,13.104c8.398,-1.92 14.404,-9.455 14.404,-18.07c0,-2.03 -0.334,-4.047 -0.988,-5.97l3.64,10.696c2.935,9.277 12.462,14.947 22.016,13.104c8.401,-1.922 14.409,-9.459 14.409,-18.077c0,-2.028 -0.333,-4.043 -0.985,-5.963l-9.368,-27.528c-1.409,-4.154 0.847,-8.732 5,-10.144l62.616,-21.304c-6.789,-19.989 -25.673,-33.518 -46.783,-33.518c-16.974,0 -32.801,8.747 -41.833,23.118c-15.17,-2.936 -30.652,3.938 -38.648,17.16c-18.833,-0.655 -35.281,13.255 -37.76,31.936Z" style="fill:#f9f2cc;fill-opacity:0.372549;fill-rule:nonzero;"/></g><path d="M312,40c0,13.166 10.834,24 24,24c13.166,0 24,-10.834 24,-24c0,-13.166 -10.834,-24 -24,-24c-13.166,0 -24,10.834 -24,24Zm32,0c0,4.389 -3.611,8 -8,8c-4.389,0 -8,-3.611 -8,-8c0,-4.389 3.611,-8 8,-8c4.389,0 8,3.611 8,8Z" style="fill-opacity:0.372549;fill-rule:nonzero;"/><path d="M264,56c-21.943,0 -40,18.057 -40,40c0,21.943 18.057,40 40,40c21.943,0 40,-18.057 40,-40c-0.026,-21.933 -18.067,-39.974 -40,-40Zm0,64c-13.166,0 -24,-10.834 -24,-24c0,-13.166 10.834,-24 24,-24c13.166,0 24,10.834 24,24c0,13.166 -10.834,24 -24,24Z" style="fill-opacity:0.372549;fill-rule:nonzero;"/><path d="M152,136c17.555,0 32,-14.445 32,-32c0,-17.555 -14.445,-32 -32,-32c-17.555,0 -32,14.445 -32,32c0,17.555 14.445,32 32,32Zm0,-48c8.777,0 16,7.223 16,16c0,8.777 -7.223,16 -16,16c-8.777,0 -16,-7.223 -16,-16c0,-8.777 7.223,-16 16,-16Z" style="fill-opacity:0.372549;fill-rule:nonzero;"/><path d="M104,16c-13.166,0 -24,10.834 -24,24c0,13.166 10.834,24 24,24c13.166,0 24,-10.834 24,-24c0,-13.166 -10.834,-24 -24,-24Zm0,32c-4.389,0 -8,-3.611 -8,-8c0,-4.389 3.611,-8 8,-8c4.389,0 8,3.611 8,8c0,4.389 -3.611,8 -8,8Z" style="fill-opacity:0.372549;fill-rule:nonzero;"/><path d="M298.195,272.98l15.139,-5.151l51.743,152.087l-15.14,5.151l-51.742,-152.087Z" style="fill-opacity:0.372549;fill-rule:nonzero;"/><path d="M257.246,286.905l15.14,-5.151l51.742,152.087l-15.139,5.151l-51.743,-152.087Z" style="fill-opacity:0.372549;fill-rule:nonzero;"/><path d="M339.154,259.043l15.14,-5.151l51.737,152.089l-15.14,5.151l-51.737,-152.089Z" style="fill-opacity:0.372549;fill-rule:nonzero;"/><path d="M58.088,409.96l22.552,3.944l-0.72,4.112c-9.178,2.143 -15.725,10.394 -15.725,19.819c0,9.858 7.163,18.37 16.877,20.053l170.4,29.8c1.157,0.206 2.329,0.311 3.504,0.312c7.938,-0.036 15.162,-4.71 18.448,-11.936c3.56,0.813 7.279,0.608 10.728,-0.592l163.784,-55.72c8.231,-2.801 13.801,-10.58 13.801,-19.275c0,-10.588 -8.259,-19.499 -18.817,-20.301l-1.344,-3.944l21.672,-7.376c23.389,-7.989 36.086,-33.784 28.152,-57.192l-37.8,-111.144c-6.197,-18.223 -23.416,-30.555 -42.664,-30.555c-4.939,0 -9.845,0.812 -14.52,2.403l-21.68,7.376l-1.4,-4.128c-7.885,-23.231 -29.829,-38.958 -54.362,-38.958c-17.889,0 -34.786,8.361 -45.638,22.582c-13.987,-1.043 -27.671,4.601 -36.856,15.2c-1.727,-0.565 -3.491,-1.008 -5.28,-1.328c-5.914,-1.025 -11.974,-0.862 -17.824,0.48c-10.683,-10.227 -24.915,-15.942 -39.705,-15.942c-27.783,0 -51.777,20.166 -56.559,47.534l-0.752,4.296l-22.56,-3.944c-2.565,-0.449 -5.165,-0.675 -7.769,-0.675c-21.805,0 -40.637,15.827 -44.391,37.307l-20.192,115.632c-4.225,24.351 12.299,47.875 36.64,52.16Zm134.208,-183.2c0.318,3.022 0.945,6.003 1.872,8.896l-64.144,-11.2l1.496,-8.56l60.776,10.864Zm19.84,12.192l8.248,-2.8l2.808,8.248l-8.256,2.808l-2.8,-8.256Zm-124.48,134.848l-16.48,-2.88c-5.016,-0.879 -8.711,-5.278 -8.711,-10.37c0,-0.611 0.053,-1.22 0.159,-1.822l18.096,-103.472c1.013,-5.682 6.504,-9.537 12.192,-8.56l16.464,2.88l-21.72,124.224Zm166.576,98.136l-170.4,-29.808c-2.144,-0.3 -3.757,-2.153 -3.757,-4.318c0,-2.392 1.968,-4.36 4.36,-4.36c0.303,0 0.605,0.031 0.901,0.094c4.323,0.754 8.501,-2.181 9.256,-6.504l32.688,-186.888l72.72,12.72l55.752,163.928l-6.52,37.272c-0.365,2.09 0.116,4.241 1.336,5.976c1.221,1.736 3.085,2.917 5.176,3.28c2.077,0.365 3.606,2.187 3.606,4.296c0,2.393 -1.969,4.362 -4.362,4.362c-0.253,0 -0.506,-0.022 -0.756,-0.066l0,0.016Zm191.28,-72.864c0.155,0.454 0.234,0.93 0.234,1.409c0,1.857 -1.188,3.519 -2.946,4.119l-163.784,55.728c-0.455,0.155 -0.932,0.235 -1.412,0.235c-2.393,0 -4.363,-1.97 -4.363,-4.363c0,-1.861 1.19,-3.526 2.951,-4.128c3.236,-1.099 5.427,-4.157 5.427,-7.575c0,-0.876 -0.145,-1.747 -0.427,-2.577l-61.096,-179.608l9.536,-3.24c4.975,6.799 12.912,10.826 21.337,10.826c7.447,0 14.558,-3.147 19.567,-8.658c2.204,2.354 4.817,4.29 7.712,5.712c3.645,1.794 7.654,2.727 11.717,2.727c14.557,0 26.536,-11.979 26.536,-26.536c0,-2.906 -0.478,-5.792 -1.413,-8.543l-1.408,-4.12l55.056,-18.736l61.104,179.608c1.099,3.237 4.157,5.429 7.576,5.429c0.879,0 1.752,-0.145 2.584,-0.429c2.258,-0.758 4.74,0.467 5.512,2.72Zm-139.784,-192l55.072,-18.728l2.808,8.256l-55.048,18.728l-2.832,-8.256Zm82.136,11.2l15.824,-5.384c1.093,-0.372 2.24,-0.562 3.395,-0.562c4.503,0 8.53,2.888 9.973,7.154l33.832,99.432c1.857,5.473 -1.114,11.504 -6.584,13.368l-15.824,5.384l-40.616,-119.392Zm13.736,-30.752c15.101,-5.138 31.756,3.059 36.896,18.16l37.776,111.12c5.114,15.096 -3.076,31.729 -18.16,36.88l-21.672,7.376l-2.84,-8.256l15.832,-5.384c13.768,-4.706 21.241,-19.892 16.568,-33.672l-33.84,-99.44c-4.71,-13.762 -19.885,-21.233 -33.664,-16.576l-15.824,5.384l-2.8,-8.248l21.728,-7.344Zm-156.224,1.6c6.263,-10.366 18.397,-15.757 30.288,-13.456c3.235,0.622 6.538,-0.816 8.288,-3.608c5.009,-8.054 12.664,-14.122 21.648,-17.16c18.663,-6.322 39.381,1.49 49.224,18.56l-61.856,21.048c-4.144,1.426 -6.385,6.005 -4.968,10.152l11.936,35.096c0.297,0.985 0.447,2.008 0.447,3.037c0,5.78 -4.756,10.536 -10.536,10.536c-4.363,0 -8.295,-2.711 -9.847,-6.789l-4,-11.696c-1.023,-3.358 -4.142,-5.669 -7.653,-5.669c-4.388,0 -8,3.612 -8,8c0,0.967 0.175,1.925 0.517,2.829c0.331,1.036 0.5,2.118 0.5,3.206c0,5.78 -4.756,10.536 -10.536,10.536c-4.435,0 -8.417,-2.8 -9.916,-6.974l-8,-23.4c-1.416,-4.15 -5.992,-6.402 -10.144,-4.992l-14.632,4.976c-0.652,-12.873 7.348,-24.709 19.536,-28.904c3.372,-1.148 6.929,-1.655 10.488,-1.496c2.919,0.147 5.69,-1.333 7.192,-3.84l0.024,0.008Zm-64.504,-14.856c9.362,1.602 17.881,6.412 24.088,13.6c0.421,0.453 0.894,0.856 1.408,1.2c-6.234,5.845 -10.691,13.334 -12.856,21.6l-58.4,-10.456c7.082,-18.378 26.328,-29.298 45.736,-25.952l0.024,0.008Zm-143.664,186.288l20.232,-115.64c2.413,-13.853 14.556,-24.063 28.617,-24.063c1.687,0 3.37,0.147 5.031,0.439l22.544,3.936l-1.496,8.592l-16.464,-2.88c-1.511,-0.264 -3.041,-0.397 -4.575,-0.397c-12.851,0 -23.947,9.335 -26.145,21.997l-18.096,103.464c-2.498,14.349 7.252,28.212 21.6,30.712l16.464,2.88l-1.496,8.592l-22.624,-3.984c-15.682,-2.789 -26.315,-17.954 -23.592,-33.648Z" style="fill-opacity:0.372549;fill-rule:nonzero;"/><path d="M162.965,445.278l27.68,-158.245l15.769,2.758l-27.681,158.245l-15.768,-2.758Z" style="fill-opacity:0.372549;fill-rule:nonzero;"/><path d="M205.567,452.795l15.513,-94.106l15.779,2.601l-15.513,94.106l-15.779,-2.601Z" style="fill-opacity:0.372549;fill-rule:nonzero;"/><path d="M120.36,437.818l27.671,-158.239l15.769,2.757l-27.671,158.239l-15.769,-2.757Z" style="fill-opacity:0.372549;fill-rule:nonzero;"/></svg>